<svg xmlns="http://www.w3.org/2000/svg" xmlns:xlink="http://www.w3.org/1999/xlink" width="500" zoomAndPan="magnify" viewBox="0 0 375 374.999991" height="500" preserveAspectRatio="xMidYMid meet" version="1.0"><defs><g/><clipPath id="386a1b8b11"><path d="M 284 143.066406 L 374 143.066406 L 374 186 L 284 186 Z M 284 143.066406 " clip-rule="nonzero"/></clipPath><clipPath id="476dae3d2d"><path d="M 278.800781 178.71875 L 374.628906 178.71875 L 374.628906 209.253906 L 278.800781 209.253906 Z M 278.800781 178.71875 " clip-rule="nonzero"/></clipPath><clipPath id="95666141fa"><path d="M 275.347656 183 L 365.414062 183 L 365.414062 224.253906 L 275.347656 224.253906 Z M 275.347656 183 " clip-rule="nonzero"/></clipPath></defs><g clip-path="url(#386a1b8b11)"><path fill="#ffffff" d="M 349.695312 161.289062 C 337.109375 153.722656 310.164062 170.039062 310.164062 170.039062 L 298.421875 169.347656 C 334.277344 145.398438 349.695312 161.289062 349.695312 161.289062 Z M 338.691406 163.238281 C 338.375 164.136719 337.765625 164.742188 337.035156 164.871094 C 335.804688 165.089844 333.71875 165.5 331.488281 166.105469 C 327.816406 167.109375 323.882812 167.496094 319.765625 167.183594 C 319.765625 167.183594 328.5 161.730469 339.832031 159.988281 Z M 296.78125 170.015625 C 296.78125 170.015625 290.464844 177.117188 286.046875 183.535156 C 285.6875 184.054688 285.964844 184.796875 286.546875 184.90625 C 290.65625 185.675781 298.597656 186.402344 309.453125 183.96875 C 320.328125 181.53125 351.371094 179.722656 365.394531 179.007812 L 371.808594 178.699219 L 365.394531 178.511719 L 365.394531 178.214844 L 371.292969 178.015625 L 365.394531 177.6875 L 365.390625 177.6875 C 354.085938 177.175781 330.242188 176.695312 316.144531 180.714844 C 316.144531 180.714844 334.644531 161.585938 351.78125 168.230469 C 357.757812 170.546875 362.21875 172.644531 365.394531 174.300781 L 373.109375 178.835938 C 371.027344 176.691406 365.394531 172.804688 365.394531 172.804688 C 362.085938 170.695312 356.035156 166.671875 350.242188 161.9375 L 365.394531 172.601562 L 365.394531 149.695312 C 365.394531 146.046875 362.433594 143.089844 358.789062 143.089844 L 290.832031 143.089844 C 287.183594 143.089844 284.226562 146.046875 284.226562 149.695312 L 284.226562 183.230469 C 284.253906 183.195312 284.273438 183.15625 284.296875 183.125 C 286.289062 180.59375 291.609375 174.089844 296.78125 170.015625 " fill-opacity="1" fill-rule="nonzero"/></g><g clip-path="url(#476dae3d2d)"><path fill="#ffffff" d="M 331.351562 192.597656 C 315.691406 197.902344 295.164062 197.804688 295.164062 197.804688 L 297.316406 192.984375 C 304.792969 192.871094 311.789062 191.875 318.234375 190.078125 C 327.238281 187.566406 335.105469 186.066406 335.105469 186.066406 L 372.566406 178.75 L 326.996094 186.246094 C 326.492188 186.328125 325.984375 186.4375 325.480469 186.570312 L 308.121094 191.148438 C 306.59375 191.550781 305.019531 191.792969 303.417969 191.859375 L 301.535156 191.941406 C 297.472656 192.117188 293.289062 191.261719 289.363281 189.25 C 287.371094 188.234375 285.449219 186.9375 284.253906 185.367188 C 284.242188 185.355469 284.238281 185.339844 284.226562 185.328125 L 284.226562 206.207031 L 278.867188 209.207031 L 284.226562 207.558594 L 365.390625 182.648438 L 374.996094 179.550781 L 331.351562 192.597656 " fill-opacity="1" fill-rule="nonzero"/></g><g clip-path="url(#95666141fa)"><path fill="#ffffff" d="M 284.226562 212.398438 L 275.347656 215.609375 L 284.226562 213.8125 L 284.226562 217.648438 C 284.226562 221.296875 287.183594 224.253906 290.832031 224.253906 L 358.789062 224.253906 C 362.433594 224.253906 365.394531 221.296875 365.394531 217.648438 L 365.394531 183.035156 L 284.226562 212.398438 " fill-opacity="1" fill-rule="nonzero"/></g><g fill="#737373" fill-opacity="0.302"><g transform="translate(73.457471, 179.310032)"><g><path d="M 14.296875 -11.625 L 10.3125 -7.484375 L 10.3125 0 L 3.515625 0 L 3.515625 -29.59375 L 10.3125 -29.59375 L 10.3125 -15.765625 L 23.421875 -29.59375 L 31.03125 -29.59375 L 18.765625 -16.40625 L 31.75 0 L 23.765625 0 Z M 14.296875 -11.625 "/></g></g></g><g fill="#737373" fill-opacity="0.302"><g transform="translate(108.964824, 179.310032)"><g><path d="M 26.421875 -5.5 L 26.421875 0 L 3.515625 0 L 3.515625 -29.59375 L 25.875 -29.59375 L 25.875 -24.09375 L 10.3125 -24.09375 L 10.3125 -17.671875 L 24.0625 -17.671875 L 24.0625 -12.34375 L 10.3125 -12.34375 L 10.3125 -5.5 Z M 26.421875 -5.5 "/></g></g></g><g fill="#737373" fill-opacity="0.302"><g transform="translate(141.555665, 179.310032)"><g><path d="M 22.359375 0 L 16.65625 -8.25 L 10.359375 -8.25 L 10.359375 0 L 3.515625 0 L 3.515625 -29.59375 L 16.328125 -29.59375 C 18.941406 -29.59375 21.210938 -29.15625 23.140625 -28.28125 C 25.078125 -27.40625 26.566406 -26.164062 27.609375 -24.5625 C 28.648438 -22.957031 29.171875 -21.054688 29.171875 -18.859375 C 29.171875 -16.660156 28.640625 -14.765625 27.578125 -13.171875 C 26.523438 -11.578125 25.023438 -10.359375 23.078125 -9.515625 L 29.71875 0 Z M 22.234375 -18.859375 C 22.234375 -20.523438 21.695312 -21.800781 20.625 -22.6875 C 19.5625 -23.570312 18 -24.015625 15.9375 -24.015625 L 10.359375 -24.015625 L 10.359375 -13.703125 L 15.9375 -13.703125 C 18 -13.703125 19.5625 -14.148438 20.625 -15.046875 C 21.695312 -15.953125 22.234375 -17.222656 22.234375 -18.859375 Z M 22.234375 -18.859375 "/></g></g></g><g fill="#737373" fill-opacity="0.302"><g transform="translate(176.851678, 179.310032)"><g><path d="M 26.421875 -5.5 L 26.421875 0 L 3.515625 0 L 3.515625 -29.59375 L 25.875 -29.59375 L 25.875 -24.09375 L 10.3125 -24.09375 L 10.3125 -17.671875 L 24.0625 -17.671875 L 24.0625 -12.34375 L 10.3125 -12.34375 L 10.3125 -5.5 Z M 26.421875 -5.5 "/></g></g></g><g fill="#737373" fill-opacity="0.302"><g transform="translate(209.442516, 179.310032)"><g><path d="M 9.640625 -24.015625 L 0.171875 -24.015625 L 0.171875 -29.59375 L 25.953125 -29.59375 L 25.953125 -24.015625 L 16.484375 -24.015625 L 16.484375 0 L 9.640625 0 Z M 9.640625 -24.015625 "/></g></g></g><g fill="#737373" fill-opacity="0.302"><g transform="translate(239.793156, 179.310032)"><g><path d="M 23 -6.34375 L 9.265625 -6.34375 L 6.640625 0 L -0.375 0 L 12.8125 -29.59375 L 19.578125 -29.59375 L 32.8125 0 L 25.625 0 Z M 20.84375 -11.546875 L 16.15625 -22.875 L 11.453125 -11.546875 Z M 20.84375 -11.546875 "/></g></g></g><g fill="#737373" fill-opacity="0.502"><g transform="translate(71.588579, 177.441141)"><g><path d="M 14.296875 -11.625 L 10.3125 -7.484375 L 10.3125 0 L 3.515625 0 L 3.515625 -29.59375 L 10.3125 -29.59375 L 10.3125 -15.765625 L 23.421875 -29.59375 L 31.03125 -29.59375 L 18.765625 -16.40625 L 31.75 0 L 23.765625 0 Z M 14.296875 -11.625 "/></g></g></g><g fill="#737373" fill-opacity="0.502"><g transform="translate(107.095932, 177.441141)"><g><path d="M 26.421875 -5.5 L 26.421875 0 L 3.515625 0 L 3.515625 -29.59375 L 25.875 -29.59375 L 25.875 -24.09375 L 10.3125 -24.09375 L 10.3125 -17.671875 L 24.0625 -17.671875 L 24.0625 -12.34375 L 10.3125 -12.34375 L 10.3125 -5.5 Z M 26.421875 -5.5 "/></g></g></g><g fill="#737373" fill-opacity="0.502"><g transform="translate(139.686773, 177.441141)"><g><path d="M 22.359375 0 L 16.65625 -8.25 L 10.359375 -8.25 L 10.359375 0 L 3.515625 0 L 3.515625 -29.59375 L 16.328125 -29.59375 C 18.941406 -29.59375 21.210938 -29.15625 23.140625 -28.28125 C 25.078125 -27.40625 26.566406 -26.164062 27.609375 -24.5625 C 28.648438 -22.957031 29.171875 -21.054688 29.171875 -18.859375 C 29.171875 -16.660156 28.640625 -14.765625 27.578125 -13.171875 C 26.523438 -11.578125 25.023438 -10.359375 23.078125 -9.515625 L 29.71875 0 Z M 22.234375 -18.859375 C 22.234375 -20.523438 21.695312 -21.800781 20.625 -22.6875 C 19.5625 -23.570312 18 -24.015625 15.9375 -24.015625 L 10.359375 -24.015625 L 10.359375 -13.703125 L 15.9375 -13.703125 C 18 -13.703125 19.5625 -14.148438 20.625 -15.046875 C 21.695312 -15.953125 22.234375 -17.222656 22.234375 -18.859375 Z M 22.234375 -18.859375 "/></g></g></g><g fill="#737373" fill-opacity="0.502"><g transform="translate(174.982786, 177.441141)"><g><path d="M 26.421875 -5.5 L 26.421875 0 L 3.515625 0 L 3.515625 -29.59375 L 25.875 -29.59375 L 25.875 -24.09375 L 10.3125 -24.09375 L 10.3125 -17.671875 L 24.0625 -17.671875 L 24.0625 -12.34375 L 10.3125 -12.34375 L 10.3125 -5.5 Z M 26.421875 -5.5 "/></g></g></g><g fill="#737373" fill-opacity="0.502"><g transform="translate(207.573624, 177.441141)"><g><path d="M 9.640625 -24.015625 L 0.171875 -24.015625 L 0.171875 -29.59375 L 25.953125 -29.59375 L 25.953125 -24.015625 L 16.484375 -24.015625 L 16.484375 0 L 9.640625 0 Z M 9.640625 -24.015625 "/></g></g></g><g fill="#737373" fill-opacity="0.502"><g transform="translate(237.924264, 177.441141)"><g><path d="M 23 -6.34375 L 9.265625 -6.34375 L 6.640625 0 L -0.375 0 L 12.8125 -29.59375 L 19.578125 -29.59375 L 32.8125 0 L 25.625 0 Z M 20.84375 -11.546875 L 16.15625 -22.875 L 11.453125 -11.546875 Z M 20.84375 -11.546875 "/></g></g></g><g fill="#ffffff" fill-opacity="1"><g transform="translate(69.719687, 175.572251)"><g><path d="M 14.296875 -11.625 L 10.3125 -7.484375 L 10.3125 0 L 3.515625 0 L 3.515625 -29.59375 L 10.3125 -29.59375 L 10.3125 -15.765625 L 23.421875 -29.59375 L 31.03125 -29.59375 L 18.765625 -16.40625 L 31.75 0 L 23.765625 0 Z M 14.296875 -11.625 "/></g></g></g><g fill="#ffffff" fill-opacity="1"><g transform="translate(105.22704, 175.572251)"><g><path d="M 26.421875 -5.5 L 26.421875 0 L 3.515625 0 L 3.515625 -29.59375 L 25.875 -29.59375 L 25.875 -24.09375 L 10.3125 -24.09375 L 10.3125 -17.671875 L 24.0625 -17.671875 L 24.0625 -12.34375 L 10.3125 -12.34375 L 10.3125 -5.5 Z M 26.421875 -5.5 "/></g></g></g><g fill="#ffffff" fill-opacity="1"><g transform="translate(137.817881, 175.572251)"><g><path d="M 22.359375 0 L 16.65625 -8.25 L 10.359375 -8.25 L 10.359375 0 L 3.515625 0 L 3.515625 -29.59375 L 16.328125 -29.59375 C 18.941406 -29.59375 21.210938 -29.15625 23.140625 -28.28125 C 25.078125 -27.40625 26.566406 -26.164062 27.609375 -24.5625 C 28.648438 -22.957031 29.171875 -21.054688 29.171875 -18.859375 C 29.171875 -16.660156 28.640625 -14.765625 27.578125 -13.171875 C 26.523438 -11.578125 25.023438 -10.359375 23.078125 -9.515625 L 29.71875 0 Z M 22.234375 -18.859375 C 22.234375 -20.523438 21.695312 -21.800781 20.625 -22.6875 C 19.5625 -23.570312 18 -24.015625 15.9375 -24.015625 L 10.359375 -24.015625 L 10.359375 -13.703125 L 15.9375 -13.703125 C 18 -13.703125 19.5625 -14.148438 20.625 -15.046875 C 21.695312 -15.953125 22.234375 -17.222656 22.234375 -18.859375 Z M 22.234375 -18.859375 "/></g></g></g><g fill="#ffffff" fill-opacity="1"><g transform="translate(173.113894, 175.572251)"><g><path d="M 26.421875 -5.5 L 26.421875 0 L 3.515625 0 L 3.515625 -29.59375 L 25.875 -29.59375 L 25.875 -24.09375 L 10.3125 -24.09375 L 10.3125 -17.671875 L 24.0625 -17.671875 L 24.0625 -12.34375 L 10.3125 -12.34375 L 10.3125 -5.5 Z M 26.421875 -5.5 "/></g></g></g><g fill="#ffffff" fill-opacity="1"><g transform="translate(205.704732, 175.572251)"><g><path d="M 9.640625 -24.015625 L 0.171875 -24.015625 L 0.171875 -29.59375 L 25.953125 -29.59375 L 25.953125 -24.015625 L 16.484375 -24.015625 L 16.484375 0 L 9.640625 0 Z M 9.640625 -24.015625 "/></g></g></g><g fill="#ffffff" fill-opacity="1"><g transform="translate(236.055372, 175.572251)"><g><path d="M 23 -6.34375 L 9.265625 -6.34375 L 6.640625 0 L -0.375 0 L 12.8125 -29.59375 L 19.578125 -29.59375 L 32.8125 0 L 25.625 0 Z M 20.84375 -11.546875 L 16.15625 -22.875 L 11.453125 -11.546875 Z M 20.84375 -11.546875 "/></g></g></g><g fill="#000000" fill-opacity="0.302"><g transform="translate(194.209956, 197.590172)"><g><path d="M 8.15625 0.265625 C 6.726562 0.265625 5.445312 -0.0351562 4.3125 -0.640625 C 3.175781 -1.242188 2.28125 -2.082031 1.625 -3.15625 C 0.976562 -4.238281 0.65625 -5.457031 0.65625 -6.8125 C 0.65625 -8.175781 0.976562 -9.394531 1.625 -10.46875 C 2.28125 -11.550781 3.175781 -12.394531 4.3125 -13 C 5.445312 -13.601562 6.726562 -13.90625 8.15625 -13.90625 C 9.40625 -13.90625 10.53125 -13.6875 11.53125 -13.25 C 12.53125 -12.8125 13.363281 -12.175781 14.03125 -11.34375 L 11.578125 -9.125 C 10.691406 -10.1875 9.617188 -10.71875 8.359375 -10.71875 C 7.617188 -10.71875 6.957031 -10.550781 6.375 -10.21875 C 5.800781 -9.894531 5.351562 -9.4375 5.03125 -8.84375 C 4.71875 -8.257812 4.5625 -7.582031 4.5625 -6.8125 C 4.5625 -6.050781 4.71875 -5.375 5.03125 -4.78125 C 5.351562 -4.1875 5.800781 -3.726562 6.375 -3.40625 C 6.957031 -3.082031 7.617188 -2.921875 8.359375 -2.921875 C 9.617188 -2.921875 10.691406 -3.453125 11.578125 -4.515625 L 14.03125 -2.296875 C 13.363281 -1.460938 12.53125 -0.828125 11.53125 -0.390625 C 10.53125 0.046875 9.40625 0.265625 8.15625 0.265625 Z M 8.15625 0.265625 "/></g></g></g><g fill="#000000" fill-opacity="0.302"><g transform="translate(210.527328, 197.590172)"><g><path d="M 12.3125 -2.984375 L 12.3125 0 L 1.359375 0 L 1.359375 -13.640625 L 12.0625 -13.640625 L 12.0625 -10.65625 L 5.1875 -10.65625 L 5.1875 -8.359375 L 11.25 -8.359375 L 11.25 -5.46875 L 5.1875 -5.46875 L 5.1875 -2.984375 Z M 12.3125 -2.984375 "/></g></g></g><g fill="#000000" fill-opacity="0.302"><g transform="translate(225.5597, 197.590172)"><g><path d="M 7.59375 -13.640625 C 8.832031 -13.640625 9.90625 -13.429688 10.8125 -13.015625 C 11.71875 -12.609375 12.414062 -12.023438 12.90625 -11.265625 C 13.40625 -10.503906 13.65625 -9.613281 13.65625 -8.59375 C 13.65625 -7.5625 13.40625 -6.671875 12.90625 -5.921875 C 12.414062 -5.171875 11.71875 -4.585938 10.8125 -4.171875 C 9.90625 -3.765625 8.832031 -3.5625 7.59375 -3.5625 L 5.21875 -3.5625 L 5.21875 0 L 1.359375 0 L 1.359375 -13.640625 Z M 7.359375 -6.609375 C 8.148438 -6.609375 8.75 -6.78125 9.15625 -7.125 C 9.5625 -7.46875 9.765625 -7.957031 9.765625 -8.59375 C 9.765625 -9.226562 9.5625 -9.71875 9.15625 -10.0625 C 8.75 -10.414062 8.148438 -10.59375 7.359375 -10.59375 L 5.21875 -10.59375 L 5.21875 -6.609375 Z M 7.359375 -6.609375 "/></g></g></g><g fill="#000000" fill-opacity="0.302"><g transform="translate(241.8576, 197.590172)"><g><path d="M 10.5 -2.65625 L 4.734375 -2.65625 L 3.65625 0 L -0.265625 0 L 5.75 -13.640625 L 9.546875 -13.640625 L 15.59375 0 L 11.578125 0 Z M 9.375 -5.5 L 7.625 -9.859375 L 5.859375 -5.5 Z M 9.375 -5.5 "/></g></g></g><g fill="#000000" fill-opacity="0.302"><g transform="translate(259.109514, 197.590172)"><g><path d="M 4.265625 -10.578125 L 0.078125 -10.578125 L 0.078125 -13.640625 L 12.296875 -13.640625 L 12.296875 -10.578125 L 8.125 -10.578125 L 8.125 0 L 4.265625 0 Z M 4.265625 -10.578125 "/></g></g></g><g fill="#000000" fill-opacity="0.502"><g transform="translate(193.348704, 196.728918)"><g><path d="M 8.15625 0.265625 C 6.726562 0.265625 5.445312 -0.0351562 4.3125 -0.640625 C 3.175781 -1.242188 2.28125 -2.082031 1.625 -3.15625 C 0.976562 -4.238281 0.65625 -5.457031 0.65625 -6.8125 C 0.65625 -8.175781 0.976562 -9.394531 1.625 -10.46875 C 2.28125 -11.550781 3.175781 -12.394531 4.3125 -13 C 5.445312 -13.601562 6.726562 -13.90625 8.15625 -13.90625 C 9.40625 -13.90625 10.53125 -13.6875 11.53125 -13.25 C 12.53125 -12.8125 13.363281 -12.175781 14.03125 -11.34375 L 11.578125 -9.125 C 10.691406 -10.1875 9.617188 -10.71875 8.359375 -10.71875 C 7.617188 -10.71875 6.957031 -10.550781 6.375 -10.21875 C 5.800781 -9.894531 5.351562 -9.4375 5.03125 -8.84375 C 4.71875 -8.257812 4.5625 -7.582031 4.5625 -6.8125 C 4.5625 -6.050781 4.71875 -5.375 5.03125 -4.78125 C 5.351562 -4.1875 5.800781 -3.726562 6.375 -3.40625 C 6.957031 -3.082031 7.617188 -2.921875 8.359375 -2.921875 C 9.617188 -2.921875 10.691406 -3.453125 11.578125 -4.515625 L 14.03125 -2.296875 C 13.363281 -1.460938 12.53125 -0.828125 11.53125 -0.390625 C 10.53125 0.046875 9.40625 0.265625 8.15625 0.265625 Z M 8.15625 0.265625 "/></g></g></g><g fill="#000000" fill-opacity="0.502"><g transform="translate(209.666076, 196.728918)"><g><path d="M 12.3125 -2.984375 L 12.3125 0 L 1.359375 0 L 1.359375 -13.640625 L 12.0625 -13.640625 L 12.0625 -10.65625 L 5.1875 -10.65625 L 5.1875 -8.359375 L 11.25 -8.359375 L 11.25 -5.46875 L 5.1875 -5.46875 L 5.1875 -2.984375 Z M 12.3125 -2.984375 "/></g></g></g><g fill="#000000" fill-opacity="0.502"><g transform="translate(224.698448, 196.728918)"><g><path d="M 7.59375 -13.640625 C 8.832031 -13.640625 9.90625 -13.429688 10.8125 -13.015625 C 11.71875 -12.609375 12.414062 -12.023438 12.90625 -11.265625 C 13.40625 -10.503906 13.65625 -9.613281 13.65625 -8.59375 C 13.65625 -7.5625 13.40625 -6.671875 12.90625 -5.921875 C 12.414062 -5.171875 11.71875 -4.585938 10.8125 -4.171875 C 9.90625 -3.765625 8.832031 -3.5625 7.59375 -3.5625 L 5.21875 -3.5625 L 5.21875 0 L 1.359375 0 L 1.359375 -13.640625 Z M 7.359375 -6.609375 C 8.148438 -6.609375 8.75 -6.78125 9.15625 -7.125 C 9.5625 -7.46875 9.765625 -7.957031 9.765625 -8.59375 C 9.765625 -9.226562 9.5625 -9.71875 9.15625 -10.0625 C 8.75 -10.414062 8.148438 -10.59375 7.359375 -10.59375 L 5.21875 -10.59375 L 5.21875 -6.609375 Z M 7.359375 -6.609375 "/></g></g></g><g fill="#000000" fill-opacity="0.502"><g transform="translate(240.996348, 196.728918)"><g><path d="M 10.5 -2.65625 L 4.734375 -2.65625 L 3.65625 0 L -0.265625 0 L 5.75 -13.640625 L 9.546875 -13.640625 L 15.59375 0 L 11.578125 0 Z M 9.375 -5.5 L 7.625 -9.859375 L 5.859375 -5.5 Z M 9.375 -5.5 "/></g></g></g><g fill="#000000" fill-opacity="0.502"><g transform="translate(258.248262, 196.728918)"><g><path d="M 4.265625 -10.578125 L 0.078125 -10.578125 L 0.078125 -13.640625 L 12.296875 -13.640625 L 12.296875 -10.578125 L 8.125 -10.578125 L 8.125 0 L 4.265625 0 Z M 4.265625 -10.578125 "/></g></g></g><g fill="#ffffff" fill-opacity="1"><g transform="translate(192.487451, 195.867664)"><g><path d="M 8.15625 0.265625 C 6.726562 0.265625 5.445312 -0.0351562 4.3125 -0.640625 C 3.175781 -1.242188 2.28125 -2.082031 1.625 -3.15625 C 0.976562 -4.238281 0.65625 -5.457031 0.65625 -6.8125 C 0.65625 -8.175781 0.976562 -9.394531 1.625 -10.46875 C 2.28125 -11.550781 3.175781 -12.394531 4.3125 -13 C 5.445312 -13.601562 6.726562 -13.90625 8.15625 -13.90625 C 9.40625 -13.90625 10.53125 -13.6875 11.53125 -13.25 C 12.53125 -12.8125 13.363281 -12.175781 14.03125 -11.34375 L 11.578125 -9.125 C 10.691406 -10.1875 9.617188 -10.71875 8.359375 -10.71875 C 7.617188 -10.71875 6.957031 -10.550781 6.375 -10.21875 C 5.800781 -9.894531 5.351562 -9.4375 5.03125 -8.84375 C 4.71875 -8.257812 4.5625 -7.582031 4.5625 -6.8125 C 4.5625 -6.050781 4.71875 -5.375 5.03125 -4.78125 C 5.351562 -4.1875 5.800781 -3.726562 6.375 -3.40625 C 6.957031 -3.082031 7.617188 -2.921875 8.359375 -2.921875 C 9.617188 -2.921875 10.691406 -3.453125 11.578125 -4.515625 L 14.03125 -2.296875 C 13.363281 -1.460938 12.53125 -0.828125 11.53125 -0.390625 C 10.53125 0.046875 9.40625 0.265625 8.15625 0.265625 Z M 8.15625 0.265625 "/></g></g></g><g fill="#ffffff" fill-opacity="1"><g transform="translate(208.804824, 195.867664)"><g><path d="M 12.3125 -2.984375 L 12.3125 0 L 1.359375 0 L 1.359375 -13.640625 L 12.0625 -13.640625 L 12.0625 -10.65625 L 5.1875 -10.65625 L 5.1875 -8.359375 L 11.25 -8.359375 L 11.25 -5.46875 L 5.1875 -5.46875 L 5.1875 -2.984375 Z M 12.3125 -2.984375 "/></g></g></g><g fill="#ffffff" fill-opacity="1"><g transform="translate(223.837196, 195.867664)"><g><path d="M 7.59375 -13.640625 C 8.832031 -13.640625 9.90625 -13.429688 10.8125 -13.015625 C 11.71875 -12.609375 12.414062 -12.023438 12.90625 -11.265625 C 13.40625 -10.503906 13.65625 -9.613281 13.65625 -8.59375 C 13.65625 -7.5625 13.40625 -6.671875 12.90625 -5.921875 C 12.414062 -5.171875 11.71875 -4.585938 10.8125 -4.171875 C 9.90625 -3.765625 8.832031 -3.5625 7.59375 -3.5625 L 5.21875 -3.5625 L 5.21875 0 L 1.359375 0 L 1.359375 -13.640625 Z M 7.359375 -6.609375 C 8.148438 -6.609375 8.75 -6.78125 9.15625 -7.125 C 9.5625 -7.46875 9.765625 -7.957031 9.765625 -8.59375 C 9.765625 -9.226562 9.5625 -9.71875 9.15625 -10.0625 C 8.75 -10.414062 8.148438 -10.59375 7.359375 -10.59375 L 5.21875 -10.59375 L 5.21875 -6.609375 Z M 7.359375 -6.609375 "/></g></g></g><g fill="#ffffff" fill-opacity="1"><g transform="translate(240.135096, 195.867664)"><g><path d="M 10.5 -2.65625 L 4.734375 -2.65625 L 3.65625 0 L -0.265625 0 L 5.75 -13.640625 L 9.546875 -13.640625 L 15.59375 0 L 11.578125 0 Z M 9.375 -5.5 L 7.625 -9.859375 L 5.859375 -5.5 Z M 9.375 -5.5 "/></g></g></g><g fill="#ffffff" fill-opacity="1"><g transform="translate(257.38701, 195.867664)"><g><path d="M 4.265625 -10.578125 L 0.078125 -10.578125 L 0.078125 -13.640625 L 12.296875 -13.640625 L 12.296875 -10.578125 L 8.125 -10.578125 L 8.125 0 L 4.265625 0 Z M 4.265625 -10.578125 "/></g></g></g><g fill="#000000" fill-opacity="0.4"><g transform="translate(7.396317, 227.034513)"><g><path d="M 6.5625 -16.703125 L 0.109375 -16.703125 L 0.109375 -18.390625 L 14.96875 -18.390625 L 14.96875 -16.703125 L 8.515625 -16.703125 L 8.515625 0 L 6.5625 0 Z M 6.5625 -16.703125 "/></g></g></g><g fill="#000000" fill-opacity="0.4"><g transform="translate(25.09048, 227.034513)"><g><path d="M 14.53125 -4.90625 L 4.28125 -4.90625 L 2.078125 0 L 0.046875 0 L 8.453125 -18.390625 L 10.375 -18.390625 L 18.78125 0 L 16.734375 0 Z M 13.8125 -6.484375 L 9.40625 -16.359375 L 4.984375 -6.484375 Z M 13.8125 -6.484375 "/></g></g></g><g fill="#000000" fill-opacity="0.4"><g transform="translate(46.538368, 227.034513)"><g><path d="M 15.546875 0 L 11.34375 -5.90625 C 10.875 -5.851562 10.382812 -5.828125 9.875 -5.828125 L 4.9375 -5.828125 L 4.9375 0 L 3 0 L 3 -18.390625 L 9.875 -18.390625 C 12.21875 -18.390625 14.054688 -17.828125 15.390625 -16.703125 C 16.722656 -15.585938 17.390625 -14.046875 17.390625 -12.078125 C 17.390625 -10.640625 17.023438 -9.425781 16.296875 -8.4375 C 15.566406 -7.445312 14.53125 -6.734375 13.1875 -6.296875 L 17.671875 0 Z M 9.828125 -7.484375 C 11.648438 -7.484375 13.039062 -7.882812 14 -8.6875 C 14.957031 -9.5 15.4375 -10.628906 15.4375 -12.078125 C 15.4375 -13.566406 14.957031 -14.707031 14 -15.5 C 13.039062 -16.300781 11.648438 -16.703125 9.828125 -16.703125 L 4.9375 -16.703125 L 4.9375 -7.484375 Z M 9.828125 -7.484375 "/></g></g></g><g fill="#000000" fill-opacity="0.4"><g transform="translate(68.143756, 227.034513)"><g><path d="M 10.40625 0.15625 C 8.019531 0.15625 6.160156 -0.523438 4.828125 -1.890625 C 3.503906 -3.253906 2.84375 -5.242188 2.84375 -7.859375 L 2.84375 -18.390625 L 4.78125 -18.390625 L 4.78125 -7.9375 C 4.78125 -5.800781 5.257812 -4.207031 6.21875 -3.15625 C 7.1875 -2.101562 8.582031 -1.578125 10.40625 -1.578125 C 12.238281 -1.578125 13.632812 -2.101562 14.59375 -3.15625 C 15.5625 -4.207031 16.046875 -5.800781 16.046875 -7.9375 L 16.046875 -18.390625 L 17.9375 -18.390625 L 17.9375 -7.859375 C 17.9375 -5.242188 17.273438 -3.253906 15.953125 -1.890625 C 14.628906 -0.523438 12.78125 0.15625 10.40625 0.15625 Z M 10.40625 0.15625 "/></g></g></g><g fill="#000000" fill-opacity="0.4"><g transform="translate(91.560371, 227.034513)"><g><path d="M 22.09375 -18.390625 L 22.09375 0 L 20.21875 0 L 20.21875 -14.703125 L 13 -2.34375 L 12.078125 -2.34375 L 4.859375 -14.625 L 4.859375 0 L 3 0 L 3 -18.390625 L 4.59375 -18.390625 L 12.578125 -4.75 L 20.484375 -18.390625 Z M 22.09375 -18.390625 "/></g></g></g><g fill="#000000" fill-opacity="0.4"><g transform="translate(119.255705, 227.034513)"><g><path d="M 14.53125 -4.90625 L 4.28125 -4.90625 L 2.078125 0 L 0.046875 0 L 8.453125 -18.390625 L 10.375 -18.390625 L 18.78125 0 L 16.734375 0 Z M 13.8125 -6.484375 L 9.40625 -16.359375 L 4.984375 -6.484375 Z M 13.8125 -6.484375 "/></g></g></g><g fill="#000000" fill-opacity="0.4"><g transform="translate(140.703588, 227.034513)"><g><path d="M 18.359375 -18.390625 L 18.359375 0 L 16.75 0 L 4.9375 -14.921875 L 4.9375 0 L 3 0 L 3 -18.390625 L 4.59375 -18.390625 L 16.4375 -3.46875 L 16.4375 -18.390625 Z M 18.359375 -18.390625 "/></g></g></g><g fill="#000000" fill-opacity="0.4"><g transform="translate(164.671445, 227.034513)"><g><path d="M 14.53125 -4.90625 L 4.28125 -4.90625 L 2.078125 0 L 0.046875 0 L 8.453125 -18.390625 L 10.375 -18.390625 L 18.78125 0 L 16.734375 0 Z M 13.8125 -6.484375 L 9.40625 -16.359375 L 4.984375 -6.484375 Z M 13.8125 -6.484375 "/></g></g></g><g fill="#000000" fill-opacity="0.4"><g transform="translate(186.119328, 227.034513)"><g><path d="M 15.9375 -9.1875 L 17.8125 -9.1875 L 17.8125 -2.1875 C 16.945312 -1.425781 15.925781 -0.84375 14.75 -0.4375 C 13.582031 -0.0390625 12.351562 0.15625 11.0625 0.15625 C 9.21875 0.15625 7.5625 -0.242188 6.09375 -1.046875 C 4.625 -1.859375 3.46875 -2.976562 2.625 -4.40625 C 1.78125 -5.832031 1.359375 -7.425781 1.359375 -9.1875 C 1.359375 -10.957031 1.78125 -12.554688 2.625 -13.984375 C 3.46875 -15.410156 4.625 -16.523438 6.09375 -17.328125 C 7.5625 -18.140625 9.222656 -18.546875 11.078125 -18.546875 C 12.484375 -18.546875 13.769531 -18.320312 14.9375 -17.875 C 16.113281 -17.425781 17.101562 -16.765625 17.90625 -15.890625 L 16.703125 -14.65625 C 15.253906 -16.09375 13.40625 -16.8125 11.15625 -16.8125 C 9.675781 -16.8125 8.332031 -16.484375 7.125 -15.828125 C 5.925781 -15.171875 4.984375 -14.257812 4.296875 -13.09375 C 3.617188 -11.925781 3.28125 -10.625 3.28125 -9.1875 C 3.28125 -7.757812 3.617188 -6.46875 4.296875 -5.3125 C 4.984375 -4.15625 5.921875 -3.242188 7.109375 -2.578125 C 8.304688 -1.910156 9.648438 -1.578125 11.140625 -1.578125 C 13.023438 -1.578125 14.625 -2.050781 15.9375 -3 Z M 15.9375 -9.1875 "/></g></g></g><g fill="#000000" fill-opacity="0.4"><g transform="translate(209.037203, 227.034513)"><g><path d="M 14.53125 -4.90625 L 4.28125 -4.90625 L 2.078125 0 L 0.046875 0 L 8.453125 -18.390625 L 10.375 -18.390625 L 18.78125 0 L 16.734375 0 Z M 13.8125 -6.484375 L 9.40625 -16.359375 L 4.984375 -6.484375 Z M 13.8125 -6.484375 "/></g></g></g><g fill="#000000" fill-opacity="0.4"><g transform="translate(230.485086, 227.034513)"><g><path d="M 15.546875 0 L 11.34375 -5.90625 C 10.875 -5.851562 10.382812 -5.828125 9.875 -5.828125 L 4.9375 -5.828125 L 4.9375 0 L 3 0 L 3 -18.390625 L 9.875 -18.390625 C 12.21875 -18.390625 14.054688 -17.828125 15.390625 -16.703125 C 16.722656 -15.585938 17.390625 -14.046875 17.390625 -12.078125 C 17.390625 -10.640625 17.023438 -9.425781 16.296875 -8.4375 C 15.566406 -7.445312 14.53125 -6.734375 13.1875 -6.296875 L 17.671875 0 Z M 9.828125 -7.484375 C 11.648438 -7.484375 13.039062 -7.882812 14 -8.6875 C 14.957031 -9.5 15.4375 -10.628906 15.4375 -12.078125 C 15.4375 -13.566406 14.957031 -14.707031 14 -15.5 C 13.039062 -16.300781 11.648438 -16.703125 9.828125 -16.703125 L 4.9375 -16.703125 L 4.9375 -7.484375 Z M 9.828125 -7.484375 "/></g></g></g><g fill="#000000" fill-opacity="0.4"><g transform="translate(252.09047, 227.034513)"><g><path d="M 14.53125 -4.90625 L 4.28125 -4.90625 L 2.078125 0 L 0.046875 0 L 8.453125 -18.390625 L 10.375 -18.390625 L 18.78125 0 L 16.734375 0 Z M 13.8125 -6.484375 L 9.40625 -16.359375 L 4.984375 -6.484375 Z M 13.8125 -6.484375 "/></g></g></g><g fill="#ffffff" fill-opacity="1"><g transform="translate(6.235443, 225.873638)"><g><path d="M 6.5625 -16.703125 L 0.109375 -16.703125 L 0.109375 -18.390625 L 14.96875 -18.390625 L 14.96875 -16.703125 L 8.515625 -16.703125 L 8.515625 0 L 6.5625 0 Z M 6.5625 -16.703125 "/></g></g></g><g fill="#ffffff" fill-opacity="1"><g transform="translate(23.929607, 225.873638)"><g><path d="M 14.53125 -4.90625 L 4.28125 -4.90625 L 2.078125 0 L 0.046875 0 L 8.453125 -18.390625 L 10.375 -18.390625 L 18.78125 0 L 16.734375 0 Z M 13.8125 -6.484375 L 9.40625 -16.359375 L 4.984375 -6.484375 Z M 13.8125 -6.484375 "/></g></g></g><g fill="#ffffff" fill-opacity="1"><g transform="translate(45.377494, 225.873638)"><g><path d="M 15.546875 0 L 11.34375 -5.90625 C 10.875 -5.851562 10.382812 -5.828125 9.875 -5.828125 L 4.9375 -5.828125 L 4.9375 0 L 3 0 L 3 -18.390625 L 9.875 -18.390625 C 12.21875 -18.390625 14.054688 -17.828125 15.390625 -16.703125 C 16.722656 -15.585938 17.390625 -14.046875 17.390625 -12.078125 C 17.390625 -10.640625 17.023438 -9.425781 16.296875 -8.4375 C 15.566406 -7.445312 14.53125 -6.734375 13.1875 -6.296875 L 17.671875 0 Z M 9.828125 -7.484375 C 11.648438 -7.484375 13.039062 -7.882812 14 -8.6875 C 14.957031 -9.5 15.4375 -10.628906 15.4375 -12.078125 C 15.4375 -13.566406 14.957031 -14.707031 14 -15.5 C 13.039062 -16.300781 11.648438 -16.703125 9.828125 -16.703125 L 4.9375 -16.703125 L 4.9375 -7.484375 Z M 9.828125 -7.484375 "/></g></g></g><g fill="#ffffff" fill-opacity="1"><g transform="translate(66.982882, 225.873638)"><g><path d="M 10.40625 0.15625 C 8.019531 0.15625 6.160156 -0.523438 4.828125 -1.890625 C 3.503906 -3.253906 2.84375 -5.242188 2.84375 -7.859375 L 2.84375 -18.390625 L 4.78125 -18.390625 L 4.78125 -7.9375 C 4.78125 -5.800781 5.257812 -4.207031 6.21875 -3.15625 C 7.1875 -2.101562 8.582031 -1.578125 10.40625 -1.578125 C 12.238281 -1.578125 13.632812 -2.101562 14.59375 -3.15625 C 15.5625 -4.207031 16.046875 -5.800781 16.046875 -7.9375 L 16.046875 -18.390625 L 17.9375 -18.390625 L 17.9375 -7.859375 C 17.9375 -5.242188 17.273438 -3.253906 15.953125 -1.890625 C 14.628906 -0.523438 12.78125 0.15625 10.40625 0.15625 Z M 10.40625 0.15625 "/></g></g></g><g fill="#ffffff" fill-opacity="1"><g transform="translate(90.399497, 225.873638)"><g><path d="M 22.09375 -18.390625 L 22.09375 0 L 20.21875 0 L 20.21875 -14.703125 L 13 -2.34375 L 12.078125 -2.34375 L 4.859375 -14.625 L 4.859375 0 L 3 0 L 3 -18.390625 L 4.59375 -18.390625 L 12.578125 -4.75 L 20.484375 -18.390625 Z M 22.09375 -18.390625 "/></g></g></g><g fill="#ffffff" fill-opacity="1"><g transform="translate(118.094831, 225.873638)"><g><path d="M 14.53125 -4.90625 L 4.28125 -4.90625 L 2.078125 0 L 0.046875 0 L 8.453125 -18.390625 L 10.375 -18.390625 L 18.78125 0 L 16.734375 0 Z M 13.8125 -6.484375 L 9.40625 -16.359375 L 4.984375 -6.484375 Z M 13.8125 -6.484375 "/></g></g></g><g fill="#ffffff" fill-opacity="1"><g transform="translate(139.542714, 225.873638)"><g><path d="M 18.359375 -18.390625 L 18.359375 0 L 16.75 0 L 4.9375 -14.921875 L 4.9375 0 L 3 0 L 3 -18.390625 L 4.59375 -18.390625 L 16.4375 -3.46875 L 16.4375 -18.390625 Z M 18.359375 -18.390625 "/></g></g></g><g fill="#ffffff" fill-opacity="1"><g transform="translate(163.510571, 225.873638)"><g><path d="M 14.53125 -4.90625 L 4.28125 -4.90625 L 2.078125 0 L 0.046875 0 L 8.453125 -18.390625 L 10.375 -18.390625 L 18.78125 0 L 16.734375 0 Z M 13.8125 -6.484375 L 9.40625 -16.359375 L 4.984375 -6.484375 Z M 13.8125 -6.484375 "/></g></g></g><g fill="#ffffff" fill-opacity="1"><g transform="translate(184.958454, 225.873638)"><g><path d="M 15.9375 -9.1875 L 17.8125 -9.1875 L 17.8125 -2.1875 C 16.945312 -1.425781 15.925781 -0.84375 14.75 -0.4375 C 13.582031 -0.0390625 12.351562 0.15625 11.0625 0.15625 C 9.21875 0.15625 7.5625 -0.242188 6.09375 -1.046875 C 4.625 -1.859375 3.46875 -2.976562 2.625 -4.40625 C 1.78125 -5.832031 1.359375 -7.425781 1.359375 -9.1875 C 1.359375 -10.957031 1.78125 -12.554688 2.625 -13.984375 C 3.46875 -15.410156 4.625 -16.523438 6.09375 -17.328125 C 7.5625 -18.140625 9.222656 -18.546875 11.078125 -18.546875 C 12.484375 -18.546875 13.769531 -18.320312 14.9375 -17.875 C 16.113281 -17.425781 17.101562 -16.765625 17.90625 -15.890625 L 16.703125 -14.65625 C 15.253906 -16.09375 13.40625 -16.8125 11.15625 -16.8125 C 9.675781 -16.8125 8.332031 -16.484375 7.125 -15.828125 C 5.925781 -15.171875 4.984375 -14.257812 4.296875 -13.09375 C 3.617188 -11.925781 3.28125 -10.625 3.28125 -9.1875 C 3.28125 -7.757812 3.617188 -6.46875 4.296875 -5.3125 C 4.984375 -4.15625 5.921875 -3.242188 7.109375 -2.578125 C 8.304688 -1.910156 9.648438 -1.578125 11.140625 -1.578125 C 13.023438 -1.578125 14.625 -2.050781 15.9375 -3 Z M 15.9375 -9.1875 "/></g></g></g><g fill="#ffffff" fill-opacity="1"><g transform="translate(207.876329, 225.873638)"><g><path d="M 14.53125 -4.90625 L 4.28125 -4.90625 L 2.078125 0 L 0.046875 0 L 8.453125 -18.390625 L 10.375 -18.390625 L 18.78125 0 L 16.734375 0 Z M 13.8125 -6.484375 L 9.40625 -16.359375 L 4.984375 -6.484375 Z M 13.8125 -6.484375 "/></g></g></g><g fill="#ffffff" fill-opacity="1"><g transform="translate(229.324212, 225.873638)"><g><path d="M 15.546875 0 L 11.34375 -5.90625 C 10.875 -5.851562 10.382812 -5.828125 9.875 -5.828125 L 4.9375 -5.828125 L 4.9375 0 L 3 0 L 3 -18.390625 L 9.875 -18.390625 C 12.21875 -18.390625 14.054688 -17.828125 15.390625 -16.703125 C 16.722656 -15.585938 17.390625 -14.046875 17.390625 -12.078125 C 17.390625 -10.640625 17.023438 -9.425781 16.296875 -8.4375 C 15.566406 -7.445312 14.53125 -6.734375 13.1875 -6.296875 L 17.671875 0 Z M 9.828125 -7.484375 C 11.648438 -7.484375 13.039062 -7.882812 14 -8.6875 C 14.957031 -9.5 15.4375 -10.628906 15.4375 -12.078125 C 15.4375 -13.566406 14.957031 -14.707031 14 -15.5 C 13.039062 -16.300781 11.648438 -16.703125 9.828125 -16.703125 L 4.9375 -16.703125 L 4.9375 -7.484375 Z M 9.828125 -7.484375 "/></g></g></g><g fill="#ffffff" fill-opacity="1"><g transform="translate(250.929596, 225.873638)"><g><path d="M 14.53125 -4.90625 L 4.28125 -4.90625 L 2.078125 0 L 0.046875 0 L 8.453125 -18.390625 L 10.375 -18.390625 L 18.78125 0 L 16.734375 0 Z M 13.8125 -6.484375 L 9.40625 -16.359375 L 4.984375 -6.484375 Z M 13.8125 -6.484375 "/></g></g></g></svg>